<?xml version="1.0" standalone="no"?>
<!DOCTYPE svg PUBLIC "-//W3C//DTD SVG 20010904//EN"
 "http://www.w3.org/TR/2001/REC-SVG-20010904/DTD/svg10.dtd">
<svg version="1.0" xmlns="http://www.w3.org/2000/svg"
 width="700.000000pt" height="700.000000pt" viewBox="0 0 700.000000 700.000000"
 preserveAspectRatio="xMidYMid meet">
<metadata>
Created by potrace 1.11, written by Peter Selinger 2001-2013
</metadata>
<g transform="translate(0.000000,700.000000) scale(0.100000,-0.100000)"
fill="#000000" stroke="none">
<path d="M3365 6994 c-1093 -50 -2060 -569 -2700 -1449 -359 -494 -581 -1082
-646 -1710 -14 -142 -14 -528 0 -670 104 -1015 614 -1902 1436 -2500 494 -359
1082 -581 1710 -646 61 -6 211 -11 335 -11 238 0 366 10 570 43 1473 241 2638
1406 2879 2879 33 204 43 332 43 570 0 238 -10 366 -43 570 -241 1473 -1406
2638 -2879 2879 -209 34 -512 54 -705 45z m873 -1736 l3 -98 -721 0 -720 0 0
-595 0 -595 340 0 340 0 0 345 0 345 825 0 825 0 0 -95 0 -95 -715 0 -715 0 0
-250 0 -250 210 0 210 0 0 -95 0 -95 -210 0 -210 0 0 -250 0 -250 655 0 655 0
0 -95 0 -95 -655 0 -655 0 0 -835 0 -835 -110 0 -110 0 0 1180 0 1180 -340 0
-340 0 0 -835 0 -835 -110 0 -110 0 0 1618 c0 890 3 1622 7 1625 3 4 376 6
827 5 l821 -3 3 -97z"/>
</g>
</svg>
